<svg xmlns="http://www.w3.org/2000/svg" xmlns:xlink="http://www.w3.org/1999/xlink" width="400" zoomAndPan="magnify" viewBox="0 0 300 254.999984" height="340" preserveAspectRatio="xMidYMid meet" version="1.0"><defs><clipPath id="500c150c9f"><path d="M 2.328125 12 L 288 12 L 288 253.5 L 2.328125 253.5 Z M 2.328125 12 " clip-rule="nonzero"/></clipPath></defs><path fill="#0768ab" d="M 13.882812 13.195312 L 276.179688 13.195312 C 276.867188 13.195312 277.550781 13.261719 278.226562 13.394531 C 278.902344 13.527344 279.558594 13.726562 280.195312 13.992188 C 280.832031 14.253906 281.433594 14.578125 282.007812 14.960938 C 282.582031 15.34375 283.109375 15.777344 283.597656 16.265625 C 284.085938 16.753906 284.519531 17.28125 284.902344 17.855469 C 285.285156 18.425781 285.609375 19.03125 285.871094 19.667969 C 286.132812 20.304688 286.332031 20.960938 286.46875 21.636719 C 286.601562 22.3125 286.667969 22.992188 286.667969 23.683594 L 286.667969 242.484375 C 286.667969 243.175781 286.601562 243.855469 286.46875 244.53125 C 286.332031 245.207031 286.132812 245.863281 285.871094 246.5 C 285.609375 247.136719 285.285156 247.742188 284.902344 248.3125 C 284.519531 248.886719 284.085938 249.414062 283.597656 249.902344 C 283.109375 250.390625 282.582031 250.824219 282.007812 251.207031 C 281.433594 251.589844 280.832031 251.914062 280.195312 252.175781 C 279.558594 252.441406 278.902344 252.640625 278.226562 252.773438 C 277.550781 252.90625 276.867188 252.976562 276.179688 252.976562 L 13.882812 252.976562 C 13.195312 252.976562 12.511719 252.90625 11.835938 252.773438 C 11.160156 252.640625 10.503906 252.441406 9.867188 252.175781 C 9.230469 251.914062 8.628906 251.589844 8.054688 251.207031 C 7.484375 250.824219 6.953125 250.390625 6.464844 249.902344 C 5.980469 249.414062 5.542969 248.886719 5.160156 248.3125 C 4.777344 247.742188 4.457031 247.136719 4.191406 246.5 C 3.929688 245.863281 3.730469 245.207031 3.59375 244.53125 C 3.460938 243.855469 3.394531 243.175781 3.394531 242.484375 L 3.394531 23.683594 C 3.394531 22.992188 3.460938 22.3125 3.59375 21.636719 C 3.730469 20.960938 3.929688 20.304688 4.191406 19.667969 C 4.457031 19.03125 4.777344 18.425781 5.160156 17.855469 C 5.542969 17.28125 5.980469 16.753906 6.464844 16.265625 C 6.953125 15.777344 7.484375 15.34375 8.054688 14.960938 C 8.628906 14.578125 9.230469 14.253906 9.867188 13.992188 C 10.503906 13.726562 11.160156 13.527344 11.835938 13.394531 C 12.511719 13.261719 13.195312 13.195312 13.882812 13.195312 Z M 13.882812 13.195312 " fill-opacity="1" fill-rule="nonzero"/><g clip-path="url(#500c150c9f)"><path fill="#023f69" d="M 276.179688 14.136719 C 281.453125 14.136719 285.726562 18.410156 285.726562 23.683594 L 285.726562 242.484375 C 285.726562 247.757812 281.453125 252.03125 276.179688 252.03125 L 13.882812 252.03125 C 8.609375 252.03125 4.335938 247.757812 4.335938 242.484375 L 4.335938 23.683594 C 4.335938 18.410156 8.613281 14.136719 13.882812 14.136719 L 276.179688 14.136719 M 276.179688 12.25 L 13.882812 12.25 C 7.578125 12.25 2.449219 17.378906 2.449219 23.683594 L 2.449219 242.484375 C 2.449219 248.789062 7.578125 253.917969 13.882812 253.917969 L 276.179688 253.917969 C 282.484375 253.917969 287.613281 248.789062 287.613281 242.484375 L 287.613281 23.683594 C 287.613281 17.378906 282.484375 12.25 276.179688 12.25 Z M 276.179688 12.25 " fill-opacity="1" fill-rule="nonzero"/></g><path fill="#ffffff" d="M 26.128906 0.945312 L 288.429688 0.945312 C 289.117188 0.945312 289.800781 1.011719 290.476562 1.144531 C 291.148438 1.28125 291.804688 1.476562 292.441406 1.742188 C 293.078125 2.003906 293.683594 2.328125 294.253906 2.710938 C 294.828125 3.09375 295.359375 3.527344 295.84375 4.015625 C 296.332031 4.503906 296.765625 5.03125 297.148438 5.605469 C 297.53125 6.179688 297.855469 6.78125 298.117188 7.417969 C 298.382812 8.054688 298.582031 8.710938 298.714844 9.386719 C 298.851562 10.0625 298.917969 10.742188 298.917969 11.433594 L 298.917969 230.234375 C 298.917969 230.925781 298.851562 231.605469 298.714844 232.28125 C 298.582031 232.957031 298.382812 233.613281 298.117188 234.25 C 297.855469 234.886719 297.53125 235.492188 297.148438 236.0625 C 296.765625 236.636719 296.332031 237.167969 295.84375 237.652344 C 295.359375 238.140625 294.828125 238.574219 294.253906 238.957031 C 293.683594 239.339844 293.078125 239.664062 292.441406 239.925781 C 291.804688 240.191406 291.148438 240.390625 290.476562 240.523438 C 289.800781 240.65625 289.117188 240.726562 288.429688 240.726562 L 26.128906 240.726562 C 25.441406 240.726562 24.757812 240.65625 24.085938 240.523438 C 23.410156 240.390625 22.753906 240.191406 22.117188 239.925781 C 21.480469 239.664062 20.875 239.339844 20.304688 238.957031 C 19.730469 238.574219 19.199219 238.140625 18.714844 237.652344 C 18.226562 237.167969 17.792969 236.636719 17.410156 236.0625 C 17.027344 235.492188 16.703125 234.886719 16.441406 234.25 C 16.175781 233.613281 15.976562 232.957031 15.84375 232.28125 C 15.707031 231.605469 15.640625 230.925781 15.640625 230.234375 L 15.640625 11.433594 C 15.640625 10.742188 15.707031 10.0625 15.84375 9.386719 C 15.976562 8.710938 16.175781 8.054688 16.441406 7.417969 C 16.703125 6.78125 17.027344 6.179688 17.410156 5.605469 C 17.792969 5.03125 18.226562 4.503906 18.714844 4.015625 C 19.199219 3.527344 19.730469 3.09375 20.304688 2.710938 C 20.875 2.328125 21.480469 2.003906 22.117188 1.742188 C 22.753906 1.476562 23.410156 1.28125 24.085938 1.144531 C 24.757812 1.011719 25.441406 0.945312 26.128906 0.945312 Z M 26.128906 0.945312 " fill-opacity="1" fill-rule="nonzero"/><path fill="#023f69" d="M 288.429688 1.886719 C 293.703125 1.886719 297.972656 6.160156 297.972656 11.433594 L 297.972656 230.234375 C 297.972656 235.507812 293.699219 239.78125 288.429688 239.78125 L 26.132812 239.78125 C 20.859375 239.78125 16.585938 235.507812 16.585938 230.234375 L 16.585938 11.433594 C 16.585938 6.160156 20.863281 1.886719 26.132812 1.886719 L 288.429688 1.886719 M 288.429688 0 L 26.132812 0 C 19.828125 0 14.699219 5.128906 14.699219 11.433594 L 14.699219 230.234375 C 14.699219 236.539062 19.828125 241.667969 26.132812 241.667969 L 288.429688 241.667969 C 294.734375 241.667969 299.863281 236.539062 299.863281 230.234375 L 299.863281 11.433594 C 299.863281 5.128906 294.734375 0 288.429688 0 Z M 288.429688 0 " fill-opacity="1" fill-rule="nonzero"/><path fill="#0cc0df" d="M 15.640625 37.59375 L 15.640625 11.300781 C 15.640625 5.589844 20.289062 0.945312 26 0.945312 L 287.90625 0.945312 C 293.976562 0.945312 298.914062 5.882812 298.914062 11.953125 L 298.914062 37.59375 Z M 15.640625 37.59375 " fill-opacity="1" fill-rule="nonzero"/><path fill="#023f69" d="M 287.90625 1.886719 C 293.46875 1.886719 297.972656 6.394531 297.972656 11.953125 L 297.972656 36.648438 L 16.585938 36.648438 L 16.585938 11.300781 C 16.585938 6.101562 20.804688 1.886719 26.003906 1.886719 L 287.90625 1.886719 M 287.90625 0 L 26 0 C 19.769531 0 14.699219 5.070312 14.699219 11.300781 L 14.699219 38.539062 L 299.859375 38.539062 L 299.859375 11.953125 C 299.859375 5.363281 294.496094 0 287.90625 0 Z M 287.90625 0 " fill-opacity="1" fill-rule="nonzero"/><path fill="#ffffff" d="M 237.601562 11.398438 L 246.582031 11.398438 C 247.042969 11.398438 247.484375 11.484375 247.90625 11.660156 C 248.332031 11.835938 248.707031 12.085938 249.03125 12.410156 C 249.355469 12.734375 249.605469 13.109375 249.78125 13.535156 C 249.957031 13.957031 250.042969 14.398438 250.042969 14.859375 L 250.042969 23.839844 C 250.042969 24.300781 249.957031 24.742188 249.78125 25.164062 C 249.605469 25.589844 249.355469 25.964844 249.03125 26.289062 C 248.707031 26.613281 248.332031 26.863281 247.90625 27.039062 C 247.484375 27.214844 247.042969 27.300781 246.582031 27.300781 L 237.601562 27.300781 C 237.140625 27.300781 236.699219 27.214844 236.277344 27.039062 C 235.851562 26.863281 235.476562 26.613281 235.152344 26.289062 C 234.828125 25.964844 234.578125 25.589844 234.402344 25.164062 C 234.226562 24.742188 234.140625 24.300781 234.140625 23.839844 L 234.140625 14.859375 C 234.140625 14.398438 234.226562 13.957031 234.402344 13.535156 C 234.578125 13.109375 234.828125 12.734375 235.152344 12.410156 C 235.476562 12.085938 235.851562 11.835938 236.277344 11.660156 C 236.699219 11.484375 237.140625 11.398438 237.601562 11.398438 Z M 237.601562 11.398438 " fill-opacity="1" fill-rule="nonzero"/><path fill="#023f69" d="M 246.582031 12.339844 C 247.972656 12.339844 249.097656 13.46875 249.097656 14.859375 L 249.097656 23.839844 C 249.097656 25.230469 247.972656 26.355469 246.582031 26.355469 L 237.601562 26.355469 C 236.210938 26.355469 235.082031 25.230469 235.082031 23.839844 L 235.082031 14.859375 C 235.082031 13.46875 236.210938 12.339844 237.601562 12.339844 L 246.582031 12.339844 M 246.582031 10.453125 L 237.601562 10.453125 C 235.171875 10.453125 233.195312 12.429688 233.195312 14.859375 L 233.195312 23.839844 C 233.195312 26.269531 235.171875 28.242188 237.601562 28.242188 L 246.582031 28.242188 C 249.011719 28.242188 250.988281 26.269531 250.988281 23.839844 L 250.988281 14.859375 C 250.988281 12.429688 249.011719 10.453125 246.582031 10.453125 Z M 246.582031 10.453125 " fill-opacity="1" fill-rule="nonzero"/><path fill="#023f69" d="M 244.828125 18.789062 L 239.359375 18.789062 C 239.050781 18.789062 238.800781 19.042969 238.800781 19.347656 C 238.800781 19.65625 239.050781 19.90625 239.359375 19.90625 L 244.828125 19.90625 C 245.132812 19.90625 245.386719 19.65625 245.386719 19.347656 C 245.386719 19.042969 245.132812 18.789062 244.828125 18.789062 Z M 244.828125 18.789062 " fill-opacity="1" fill-rule="nonzero"/><path fill="#ffffff" d="M 275.167969 11.398438 L 284.152344 11.398438 C 284.609375 11.398438 285.050781 11.484375 285.476562 11.660156 C 285.902344 11.835938 286.273438 12.085938 286.597656 12.410156 C 286.925781 12.734375 287.175781 13.109375 287.347656 13.535156 C 287.523438 13.957031 287.613281 14.398438 287.613281 14.859375 L 287.613281 23.839844 C 287.613281 24.300781 287.523438 24.742188 287.347656 25.164062 C 287.175781 25.589844 286.925781 25.964844 286.597656 26.289062 C 286.273438 26.613281 285.902344 26.863281 285.476562 27.039062 C 285.050781 27.214844 284.609375 27.300781 284.152344 27.300781 L 275.167969 27.300781 C 274.710938 27.300781 274.269531 27.214844 273.84375 27.039062 C 273.421875 26.863281 273.046875 26.613281 272.722656 26.289062 C 272.398438 25.964844 272.148438 25.589844 271.972656 25.164062 C 271.796875 24.742188 271.707031 24.300781 271.707031 23.839844 L 271.707031 14.859375 C 271.707031 14.398438 271.796875 13.957031 271.972656 13.535156 C 272.148438 13.109375 272.398438 12.734375 272.722656 12.410156 C 273.046875 12.085938 273.421875 11.835938 273.84375 11.660156 C 274.269531 11.484375 274.710938 11.398438 275.167969 11.398438 Z M 275.167969 11.398438 " fill-opacity="1" fill-rule="nonzero"/><path fill="#023f69" d="M 284.148438 12.339844 C 285.539062 12.339844 286.667969 13.46875 286.667969 14.859375 L 286.667969 23.839844 C 286.667969 25.230469 285.539062 26.355469 284.148438 26.355469 L 275.167969 26.355469 C 273.777344 26.355469 272.652344 25.230469 272.652344 23.839844 L 272.652344 14.859375 C 272.652344 13.46875 273.777344 12.339844 275.167969 12.339844 L 284.148438 12.339844 M 284.148438 10.453125 L 275.167969 10.453125 C 272.738281 10.453125 270.765625 12.429688 270.765625 14.859375 L 270.765625 23.839844 C 270.765625 26.269531 272.738281 28.242188 275.167969 28.242188 L 284.148438 28.242188 C 286.578125 28.242188 288.554688 26.269531 288.554688 23.839844 L 288.554688 14.859375 C 288.554688 12.429688 286.578125 10.453125 284.148438 10.453125 Z M 284.148438 10.453125 " fill-opacity="1" fill-rule="nonzero"/><path fill="#023f69" d="M 280.488281 19.347656 L 282.738281 17.097656 C 282.847656 16.988281 282.910156 16.839844 282.910156 16.683594 C 282.910156 16.527344 282.851562 16.382812 282.738281 16.269531 C 282.511719 16.042969 282.140625 16.042969 281.910156 16.269531 L 279.660156 18.519531 L 277.410156 16.269531 C 277.179688 16.042969 276.8125 16.042969 276.582031 16.269531 C 276.472656 16.378906 276.410156 16.527344 276.410156 16.683594 C 276.410156 16.839844 276.472656 16.984375 276.582031 17.097656 L 278.832031 19.347656 L 276.582031 21.597656 C 276.355469 21.828125 276.355469 22.195312 276.582031 22.425781 C 276.8125 22.652344 277.179688 22.652344 277.410156 22.425781 L 279.660156 20.175781 L 281.910156 22.425781 C 282.140625 22.652344 282.511719 22.652344 282.738281 22.425781 C 282.964844 22.195312 282.964844 21.828125 282.738281 21.597656 Z M 280.488281 19.347656 " fill-opacity="1" fill-rule="nonzero"/><path fill="#ffffff" d="M 256.382812 11.398438 L 265.367188 11.398438 C 265.824219 11.398438 266.265625 11.484375 266.691406 11.660156 C 267.117188 11.835938 267.488281 12.085938 267.8125 12.410156 C 268.136719 12.734375 268.390625 13.109375 268.5625 13.535156 C 268.738281 13.957031 268.828125 14.398438 268.828125 14.859375 L 268.828125 23.839844 C 268.828125 24.300781 268.738281 24.742188 268.5625 25.164062 C 268.390625 25.589844 268.136719 25.964844 267.8125 26.289062 C 267.488281 26.613281 267.117188 26.863281 266.691406 27.039062 C 266.265625 27.214844 265.824219 27.300781 265.367188 27.300781 L 256.382812 27.300781 C 255.925781 27.300781 255.484375 27.214844 255.058594 27.039062 C 254.636719 26.863281 254.261719 26.613281 253.9375 26.289062 C 253.613281 25.964844 253.363281 25.589844 253.1875 25.164062 C 253.011719 24.742188 252.921875 24.300781 252.921875 23.839844 L 252.921875 14.859375 C 252.921875 14.398438 253.011719 13.957031 253.1875 13.535156 C 253.363281 13.109375 253.613281 12.734375 253.9375 12.410156 C 254.261719 12.085938 254.636719 11.835938 255.058594 11.660156 C 255.484375 11.484375 255.925781 11.398438 256.382812 11.398438 Z M 256.382812 11.398438 " fill-opacity="1" fill-rule="nonzero"/><path fill="#023f69" d="M 265.367188 12.339844 C 266.757812 12.339844 267.882812 13.46875 267.882812 14.859375 L 267.882812 23.839844 C 267.882812 25.230469 266.757812 26.355469 265.367188 26.355469 L 256.386719 26.355469 C 254.996094 26.355469 253.867188 25.230469 253.867188 23.839844 L 253.867188 14.859375 C 253.867188 13.46875 254.996094 12.339844 256.386719 12.339844 L 265.367188 12.339844 M 265.367188 10.453125 L 256.386719 10.453125 C 253.957031 10.453125 251.980469 12.429688 251.980469 14.859375 L 251.980469 23.839844 C 251.980469 26.269531 253.957031 28.242188 256.386719 28.242188 L 265.367188 28.242188 C 267.796875 28.242188 269.773438 26.269531 269.773438 23.839844 L 269.773438 14.859375 C 269.773438 12.429688 267.796875 10.453125 265.367188 10.453125 Z M 265.367188 10.453125 " fill-opacity="1" fill-rule="nonzero"/><path fill="#023f69" d="M 263.527344 16 L 258.222656 16 C 257.839844 16 257.527344 16.3125 257.527344 16.695312 L 257.527344 22 C 257.527344 22.382812 257.839844 22.699219 258.222656 22.699219 L 263.527344 22.699219 C 263.910156 22.699219 264.226562 22.386719 264.226562 22 L 264.226562 16.695312 C 264.226562 16.3125 263.914062 16 263.527344 16 Z M 263.269531 20.746094 C 263.269531 21.292969 262.824219 21.742188 262.273438 21.742188 L 259.480469 21.742188 C 258.929688 21.742188 258.484375 21.296875 258.484375 20.746094 L 258.484375 17.949219 C 258.484375 17.402344 258.929688 16.957031 259.480469 16.957031 L 262.273438 16.957031 C 262.820312 16.957031 263.269531 17.402344 263.269531 17.949219 Z M 263.269531 20.746094 " fill-opacity="1" fill-rule="nonzero"/><path fill="#ffffff" d="M 275.203125 67.097656 C 274.484375 67.097656 273.84375 66.726562 273.488281 66.109375 C 273.136719 65.496094 273.140625 64.765625 273.496094 64.152344 L 277.671875 57.007812 C 278.027344 56.398438 278.664062 56.03125 279.375 56.03125 C 280.085938 56.03125 280.722656 56.394531 281.078125 57.007812 L 285.253906 64.152344 C 285.609375 64.761719 285.613281 65.492188 285.261719 66.105469 C 284.90625 66.726562 284.265625 67.09375 283.546875 67.09375 L 275.195312 67.09375 Z M 275.203125 67.097656 " fill-opacity="1" fill-rule="nonzero"/><path fill="#023f69" d="M 279.378906 56.972656 C 279.722656 56.972656 280.070312 57.144531 280.269531 57.480469 L 284.441406 64.628906 C 284.839844 65.304688 284.34375 66.152344 283.550781 66.152344 L 275.199219 66.152344 C 274.410156 66.152344 273.914062 65.304688 274.308594 64.628906 L 276.398438 61.054688 L 278.484375 57.480469 C 278.683594 57.144531 279.027344 56.972656 279.375 56.972656 M 279.375 55.085938 C 278.328125 55.085938 277.382812 55.628906 276.855469 56.53125 L 274.769531 60.101562 L 272.679688 63.675781 C 272.160156 64.570312 272.15625 65.679688 272.671875 66.578125 C 273.1875 67.480469 274.15625 68.039062 275.199219 68.039062 L 283.550781 68.039062 C 284.59375 68.039062 285.566406 67.480469 286.082031 66.578125 C 286.597656 65.679688 286.59375 64.570312 286.070312 63.675781 L 281.898438 56.527344 C 281.367188 55.625 280.425781 55.085938 279.378906 55.085938 Z M 279.375 55.085938 " fill-opacity="1" fill-rule="nonzero"/><path fill="#ffffff" d="M 279.378906 220.898438 C 278.664062 220.898438 278.027344 220.535156 277.671875 219.921875 L 273.496094 212.777344 C 273.140625 212.167969 273.136719 211.4375 273.488281 210.824219 C 273.84375 210.203125 274.484375 209.832031 275.203125 209.832031 L 283.554688 209.832031 C 284.269531 209.832031 284.914062 210.203125 285.265625 210.824219 C 285.621094 211.4375 285.617188 212.167969 285.257812 212.777344 L 281.085938 219.925781 C 280.730469 220.535156 280.09375 220.898438 279.382812 220.898438 Z M 279.378906 220.898438 " fill-opacity="1" fill-rule="nonzero"/><path fill="#023f69" d="M 283.554688 210.777344 C 284.34375 210.777344 284.839844 211.625 284.445312 212.300781 L 282.355469 215.875 L 280.269531 219.445312 C 280.070312 219.785156 279.726562 219.953125 279.378906 219.953125 C 279.03125 219.953125 278.6875 219.785156 278.488281 219.445312 L 276.402344 215.875 L 274.3125 212.300781 C 273.917969 211.625 274.414062 210.777344 275.203125 210.777344 L 283.554688 210.777344 M 283.554688 208.890625 L 275.203125 208.890625 C 274.160156 208.890625 273.191406 209.453125 272.675781 210.355469 C 272.160156 211.25 272.164062 212.363281 272.683594 213.253906 L 274.773438 216.828125 L 276.859375 220.402344 C 277.386719 221.304688 278.328125 221.847656 279.378906 221.847656 C 280.429688 221.847656 281.371094 221.304688 281.898438 220.402344 L 283.984375 216.828125 L 286.074219 213.253906 C 286.59375 212.363281 286.601562 211.25 286.085938 210.355469 C 285.566406 209.453125 284.597656 208.890625 283.554688 208.890625 Z M 283.554688 208.890625 " fill-opacity="1" fill-rule="nonzero"/><path fill="#0cc0df" d="M 279.355469 206.113281 C 276.910156 206.113281 274.917969 204.121094 274.917969 201.671875 L 274.917969 75.257812 C 274.917969 72.808594 276.910156 70.820312 279.355469 70.820312 C 281.847656 70.820312 283.835938 72.808594 283.835938 75.257812 L 283.835938 201.671875 C 283.835938 204.121094 281.847656 206.113281 279.398438 206.113281 Z M 279.355469 206.113281 " fill-opacity="1" fill-rule="nonzero"/><path fill="#023f69" d="M 279.398438 71.765625 C 281.328125 71.765625 282.894531 73.328125 282.894531 75.257812 L 282.894531 201.675781 C 282.894531 203.605469 281.328125 205.171875 279.398438 205.171875 L 279.355469 205.171875 C 277.425781 205.171875 275.863281 203.605469 275.863281 201.675781 L 275.863281 75.257812 C 275.863281 73.328125 277.425781 71.761719 279.355469 71.761719 L 279.398438 71.761719 M 279.398438 69.875 L 279.355469 69.875 C 276.390625 69.875 273.972656 72.289062 273.972656 75.257812 L 273.972656 201.671875 C 273.972656 204.640625 276.386719 207.054688 279.355469 207.054688 C 282.363281 207.054688 284.78125 204.640625 284.78125 201.671875 L 284.78125 75.257812 C 284.78125 72.289062 282.367188 69.875 279.398438 69.875 Z M 279.398438 69.875 " fill-opacity="1" fill-rule="nonzero"/><path fill="#0768ab" d="M 278.371094 70.820312 L 280.390625 70.820312 C 280.847656 70.820312 281.285156 70.910156 281.710938 71.082031 C 282.132812 71.257812 282.503906 71.507812 282.828125 71.832031 C 283.152344 72.15625 283.402344 72.527344 283.574219 72.949219 C 283.75 73.375 283.839844 73.8125 283.839844 74.269531 L 283.839844 137.882812 C 283.839844 138.339844 283.75 138.78125 283.574219 139.203125 C 283.402344 139.625 283.152344 140 282.828125 140.320312 C 282.503906 140.644531 282.132812 140.894531 281.710938 141.070312 C 281.285156 141.246094 280.847656 141.332031 280.390625 141.332031 L 278.371094 141.332031 C 277.914062 141.332031 277.472656 141.246094 277.050781 141.070312 C 276.625 140.894531 276.253906 140.644531 275.929688 140.320312 C 275.605469 140 275.355469 139.625 275.183594 139.203125 C 275.007812 138.78125 274.917969 138.339844 274.917969 137.882812 L 274.917969 74.269531 C 274.917969 73.8125 275.007812 73.375 275.183594 72.949219 C 275.355469 72.527344 275.605469 72.15625 275.929688 71.832031 C 276.253906 71.507812 276.625 71.257812 277.050781 71.082031 C 277.472656 70.910156 277.914062 70.820312 278.371094 70.820312 Z M 278.371094 70.820312 " fill-opacity="1" fill-rule="nonzero"/><path fill="#023f69" d="M 280.386719 71.765625 C 281.769531 71.765625 282.894531 72.886719 282.894531 74.269531 L 282.894531 137.882812 C 282.894531 139.265625 281.769531 140.386719 280.386719 140.386719 L 278.371094 140.386719 C 276.984375 140.386719 275.863281 139.265625 275.863281 137.882812 L 275.863281 74.269531 C 275.863281 72.886719 276.984375 71.765625 278.371094 71.765625 L 280.386719 71.765625 M 280.386719 69.878906 L 278.371094 69.878906 C 275.945312 69.878906 273.976562 71.847656 273.976562 74.269531 L 273.976562 137.882812 C 273.976562 140.304688 275.945312 142.277344 278.371094 142.277344 L 280.386719 142.277344 C 282.808594 142.277344 284.78125 140.304688 284.78125 137.882812 L 284.78125 74.269531 C 284.78125 71.847656 282.808594 69.878906 280.386719 69.878906 Z M 280.386719 69.878906 " fill-opacity="1" fill-rule="nonzero"/></svg>